
        <svg xmlns="http://www.w3.org/2000/svg" xmlns:xlink="http://www.w3.org/1999/xlink" version="1.1" width="907.0575434010274" 
        height="907.0575434010274" viewBox="0 0 907.0575434010274 907.0575434010274">
			<g transform="scale(8.11041548093341) translate(10, 10)">
				<defs id="SvgjsDefs11337"><linearGradient id="SvgjsLinearGradient11342"><stop id="SvgjsStop11343" stop-color="#006838" offset="0"></stop><stop id="SvgjsStop11344" stop-color="#96cf24" offset="1"></stop></linearGradient></defs><g id="SvgjsG11338" featureKey="nRdZyp-0" transform="matrix(0.9459155341173987,0,0,0.9459155341173987,-1.2626966904989743,-1.3711880899074702)" fill="url(#SvgjsLinearGradient11342)"><title xmlns="http://www.w3.org/2000/svg">Artboard 13</title><path xmlns="http://www.w3.org/2000/svg" d="M5.72,79.66c.17.31.36.6.54.9l1.09,1.79C8.12,83.51,9,84.6,9.84,85.69a37.12,37.12,0,0,0,6,5.64A35.64,35.64,0,0,0,45.46,97.6,35.53,35.53,0,0,0,58.2,91.82a34.59,34.59,0,0,0,8.75-9.09,36.58,36.58,0,0,0,4.57-10,35.31,35.31,0,0,0,.9-4.74c.08-.76.19-1.49.23-2.21l0-2.1a1.26,1.26,0,0,0-1.38-1.27A1.38,1.38,0,0,0,70,63.59l-.18,1.92c-.09.66-.25,1.32-.37,2a35.26,35.26,0,0,1-1.11,4.24,35,35,0,0,1-4.58,8.74A31.74,31.74,0,0,1,31.41,92.86a31.18,31.18,0,0,1,0-60.89A31.71,31.71,0,0,1,63.71,44.3,35,35,0,0,1,68.29,53a35.68,35.68,0,0,1,1.11,4.24c.12.69.28,1.35.37,2L70,61.2a1.43,1.43,0,0,0,1.53,1.21,1.28,1.28,0,0,0,1.21-1.31l0-2.1c0-.72-.15-1.45-.23-2.21A35.73,35.73,0,0,0,71.54,52a36.64,36.64,0,0,0-4.59-10A34.58,34.58,0,0,0,58.18,33a35.56,35.56,0,0,0-12.75-5.77A35.68,35.68,0,0,0,15.81,33.5a37.3,37.3,0,0,0-6,5.64C9,40.24,8.09,41.33,7.33,42.49a35.13,35.13,0,0,0-2.09,3.63,35.95,35.95,0,0,0,0,32.59Z"></path><path xmlns="http://www.w3.org/2000/svg" d="M95.95,14.84a26.33,26.33,0,0,0-4.47-6.15A26.37,26.37,0,0,0,85.33,4.2a24.85,24.85,0,0,0-7.09-2.38A24.19,24.19,0,0,0,59,6.68a25.25,25.25,0,0,0-4,4.05,21.84,21.84,0,0,0-3.88,8.08c-.09.34.46.78,1.21,1s1.27.14,1.39-.1a22.61,22.61,0,0,1,7.89-9.46,21.92,21.92,0,0,1,4.57-2.33A20.41,20.41,0,0,1,82.79,9a22,22,0,0,1,4.79,3.53,22,22,0,0,1,3.53,4.79,20.43,20.43,0,0,1,1.13,16.57,22,22,0,0,1-2.33,4.58,24.43,24.43,0,0,1-3.05,3.6,24.44,24.44,0,0,1-6.41,4.31c-.27.13-.29.83,0,1.54s.61,1.06.9,1a21.81,21.81,0,0,0,8.07-3.86,25.3,25.3,0,0,0,4.06-4,24.63,24.63,0,0,0,3.24-5.41,24.37,24.37,0,0,0,1.63-13.79A24.77,24.77,0,0,0,95.95,14.84Z"></path><path xmlns="http://www.w3.org/2000/svg" d="M41.14,74.15a6.45,6.45,0,0,1-2.77,1.11,6.55,6.55,0,0,1-2.78-.13,7,7,0,0,1-3.8-2.74c-.1-.15-.77,0-1.46.27s-1,.65-1,.89a9,9,0,0,0,4.81,5.23,8.61,8.61,0,0,0,.81.31A5.08,5.08,0,0,0,36.41,83a11.68,11.68,0,0,0,1.44,0,9.57,9.57,0,0,0,1.24,0,4.89,4.89,0,0,0,1.4-3.6,9.83,9.83,0,0,0,3.23-1.22,9.15,9.15,0,0,0,3.85-4.46,9.29,9.29,0,0,0,.68-3,8.55,8.55,0,0,0-2.06-6.28,10.59,10.59,0,0,0-2.48-2.06,17.9,17.9,0,0,0-5.35-2.07,13.57,13.57,0,0,1-3.75-1.38,4.07,4.07,0,0,1-1.94-2.07,4.5,4.5,0,0,1,0-2.82,4.4,4.4,0,0,1,1.67-2.24,6.41,6.41,0,0,1,2.76-1.1,6.52,6.52,0,0,1,2.77.13,7,7,0,0,1,3.78,2.73c.11.15.79,0,1.49-.27s1.06-.67,1-.91a9,9,0,0,0-4.84-5.23,8.61,8.61,0,0,0-.82-.32c.13-1.93-.32-4-1.35-4.94a10.48,10.48,0,0,0-1.47-.05,8.68,8.68,0,0,0-1.28.05c-1,.91-1.43,2.8-1.36,4.64a9.83,9.83,0,0,0-3.26,1.23,9.16,9.16,0,0,0-3.85,4.48,9.33,9.33,0,0,0-.68,3A8.55,8.55,0,0,0,29.3,61.5a10.57,10.57,0,0,0,2.48,2.06,18,18,0,0,0,5.35,2.07A13.52,13.52,0,0,1,40.89,67a4.06,4.06,0,0,1,1.94,2.07,4.51,4.51,0,0,1,0,2.83A4.42,4.42,0,0,1,41.14,74.15Z"></path></g>
			</g>
		</svg>
	