
        <svg xmlns="http://www.w3.org/2000/svg" xmlns:xlink="http://www.w3.org/1999/xlink" version="1.1" width="3162.208309618669" 
        height="907.0575434010274" viewBox="0 0 3162.208309618669 907.0575434010274">
			
			<g transform="scale(8.11041548093341) translate(10, 10)">
				<defs id="SvgjsDefs5422"><linearGradient id="SvgjsLinearGradient5427"><stop id="SvgjsStop5428" stop-color="#006838" offset="0"></stop><stop id="SvgjsStop5429" stop-color="#96cf24" offset="1"></stop></linearGradient></defs><g id="SvgjsG5423" featureKey="nRdZyp-0" transform="matrix(0.9459155341173987,0,0,0.9459155341173987,-1.2626966904989743,-1.3711880899074702)" fill="url(#SvgjsLinearGradient5427)"><title xmlns="http://www.w3.org/2000/svg">Artboard 13</title><path xmlns="http://www.w3.org/2000/svg" d="M5.72,79.66c.17.31.36.6.54.9l1.09,1.79C8.12,83.51,9,84.6,9.84,85.69a37.12,37.12,0,0,0,6,5.64A35.64,35.64,0,0,0,45.46,97.6,35.53,35.53,0,0,0,58.2,91.82a34.59,34.59,0,0,0,8.75-9.09,36.58,36.58,0,0,0,4.57-10,35.31,35.31,0,0,0,.9-4.74c.08-.76.19-1.49.23-2.21l0-2.1a1.26,1.26,0,0,0-1.38-1.27A1.38,1.38,0,0,0,70,63.59l-.18,1.92c-.09.66-.25,1.32-.37,2a35.26,35.26,0,0,1-1.11,4.24,35,35,0,0,1-4.58,8.74A31.74,31.74,0,0,1,31.41,92.86a31.18,31.18,0,0,1,0-60.89A31.71,31.71,0,0,1,63.71,44.3,35,35,0,0,1,68.29,53a35.68,35.68,0,0,1,1.11,4.24c.12.69.28,1.35.37,2L70,61.2a1.43,1.43,0,0,0,1.53,1.21,1.28,1.28,0,0,0,1.21-1.31l0-2.1c0-.72-.15-1.45-.23-2.21A35.73,35.73,0,0,0,71.54,52a36.64,36.64,0,0,0-4.59-10A34.58,34.58,0,0,0,58.18,33a35.56,35.56,0,0,0-12.75-5.77A35.68,35.68,0,0,0,15.81,33.5a37.3,37.3,0,0,0-6,5.64C9,40.24,8.09,41.33,7.33,42.49a35.13,35.13,0,0,0-2.09,3.63,35.95,35.95,0,0,0,0,32.59Z"></path><path xmlns="http://www.w3.org/2000/svg" d="M95.95,14.84a26.33,26.33,0,0,0-4.47-6.15A26.37,26.37,0,0,0,85.33,4.2a24.85,24.85,0,0,0-7.09-2.38A24.19,24.19,0,0,0,59,6.68a25.25,25.25,0,0,0-4,4.05,21.84,21.84,0,0,0-3.88,8.08c-.09.34.46.78,1.21,1s1.27.14,1.39-.1a22.61,22.61,0,0,1,7.89-9.46,21.92,21.92,0,0,1,4.57-2.33A20.41,20.41,0,0,1,82.79,9a22,22,0,0,1,4.79,3.53,22,22,0,0,1,3.53,4.79,20.43,20.43,0,0,1,1.13,16.57,22,22,0,0,1-2.33,4.58,24.43,24.43,0,0,1-3.05,3.6,24.44,24.44,0,0,1-6.41,4.31c-.27.13-.29.83,0,1.54s.61,1.06.9,1a21.81,21.81,0,0,0,8.07-3.86,25.3,25.3,0,0,0,4.06-4,24.63,24.63,0,0,0,3.24-5.41,24.37,24.37,0,0,0,1.63-13.79A24.77,24.77,0,0,0,95.95,14.84Z"></path><path xmlns="http://www.w3.org/2000/svg" d="M41.14,74.15a6.45,6.45,0,0,1-2.77,1.11,6.55,6.55,0,0,1-2.78-.13,7,7,0,0,1-3.8-2.74c-.1-.15-.77,0-1.46.27s-1,.65-1,.89a9,9,0,0,0,4.81,5.23,8.61,8.61,0,0,0,.81.31A5.08,5.08,0,0,0,36.41,83a11.68,11.68,0,0,0,1.44,0,9.57,9.57,0,0,0,1.24,0,4.89,4.89,0,0,0,1.4-3.6,9.83,9.83,0,0,0,3.23-1.22,9.15,9.15,0,0,0,3.85-4.46,9.29,9.29,0,0,0,.68-3,8.55,8.55,0,0,0-2.06-6.28,10.59,10.59,0,0,0-2.48-2.06,17.9,17.9,0,0,0-5.35-2.07,13.57,13.57,0,0,1-3.75-1.38,4.07,4.07,0,0,1-1.94-2.07,4.5,4.5,0,0,1,0-2.82,4.4,4.4,0,0,1,1.67-2.24,6.41,6.41,0,0,1,2.76-1.1,6.52,6.52,0,0,1,2.77.13,7,7,0,0,1,3.78,2.73c.11.15.79,0,1.49-.27s1.06-.67,1-.91a9,9,0,0,0-4.84-5.23,8.61,8.61,0,0,0-.82-.32c.13-1.93-.32-4-1.35-4.94a10.48,10.48,0,0,0-1.47-.05,8.68,8.68,0,0,0-1.28.05c-1,.91-1.43,2.8-1.36,4.64a9.83,9.83,0,0,0-3.26,1.23,9.16,9.16,0,0,0-3.85,4.48,9.33,9.33,0,0,0-.68,3A8.55,8.55,0,0,0,29.3,61.5a10.57,10.57,0,0,0,2.48,2.06,18,18,0,0,0,5.35,2.07A13.52,13.52,0,0,1,40.89,67a4.06,4.06,0,0,1,1.94,2.07,4.51,4.51,0,0,1,0,2.83A4.42,4.42,0,0,1,41.14,74.15Z"></path></g><g id="SvgjsG5424" featureKey="Q4qmbg-0" transform="matrix(3.834773310058296,0,0,3.834773310058296,106.63131700020591,-12.008639860349778)" fill="#ffffff"><path d="M3.2 15 c0 2.04 0.9 3.4 3.06 3.4 c2.2 0 3.14 -1.4 3.14 -3.4 c0 -2.12 -1.04 -3.4 -3.14 -3.4 c-2.16 0 -3.06 1.36 -3.06 3.4 z M3.2 18.54 l0 5.46 l-1.8 0 l0 -9 c0 -3.02 1.9 -5.1 4.88 -5.1 c3.06 0 4.92 2.2 4.92 5.1 c0 2.82 -1.9 5.1 -4.76 5.1 c-1.28 0 -2.48 -0.5 -3.24 -1.56 z M20.30527083333333 15 c-0.08 -2 -0.9 -3.4 -3.06 -3.4 c-2.18 0 -3.14 1.42 -3.14 3.4 c0 2.08 1.04 3.4 3.12 3.4 c2.18 0 3.08 -1.34 3.08 -3.4 z M22.905270833333333 20 l-1.8 0 c-0.26 -0.58 -0.44 -1.16 -0.54 -1.74 c-0.8 1.24 -2.06 1.84 -3.52 1.84 c-2.92 0 -4.74 -2.38 -4.74 -5.12 c0 -3 2 -5.08 4.94 -5.08 c3.1 0 4.78 2.22 4.86 5.1 c0.02 0.26 0.02 0.56 0.02 0.92 c0 1.4 0.22 2.8 0.78 4.08 z M31.590541666666667 15 l0 -5 l1.8 0 l0 9.48 c0 3.12 -1.98 5.12 -5.02 5.12 c-1.02 0 -2.06 -0.12 -3.02 -0.44 l0 -1.84 c0.74 0.4 2.08 0.54 2.92 0.54 c2.36 0 3.32 -1.22 3.32 -3.4 l0 -0.92 c-0.76 1.08 -1.88 1.56 -3.18 1.56 c-2.9 0 -4.42 -2.48 -4.42 -5.1 l0 -5 l1.8 0 l0 5 c0 1.88 0.72 3.4 2.8 3.4 s3 -1.46 3 -3.4 z M43.0958125 15 c-0.08 -2 -0.9 -3.4 -3.06 -3.4 c-2.18 0 -3.14 1.42 -3.14 3.4 c0 2.08 1.04 3.4 3.12 3.4 c2.18 0 3.08 -1.34 3.08 -3.4 z M45.6958125 20 l-1.8 0 c-0.26 -0.58 -0.44 -1.16 -0.54 -1.74 c-0.8 1.24 -2.06 1.84 -3.52 1.84 c-2.92 0 -4.74 -2.38 -4.74 -5.12 c0 -3 2 -5.08 4.94 -5.08 c3.1 0 4.78 2.22 4.86 5.1 c0.02 0.26 0.02 0.56 0.02 0.92 c0 1.4 0.22 2.8 0.78 4.08 z M51.601083333333335 20 l-1.8 0 c-0.72 -1.68 -1.44 -3.34 -2.14 -5 c-0.72 -1.66 -1.44 -3.32 -2.16 -5 l1.82 0 l3.38 8.16 l3.38 -8.16 l1.82 0 c-0.72 1.68 -1.44 3.34 -2.14 5 c-0.72 1.66 -1.44 3.32 -2.16 5 z M57.94635416666666 13.98 c0.86 0.44 2.08 0.68 3.04 0.68 c0.98 0 2.18 -0.28 2.18 -1.48 c0 -1.24 -1.16 -1.54 -2.18 -1.54 c-1.6 0 -2.72 0.72 -3.04 2.34 z M64.38635416666666 17.96 l0 1.72 c-1.02 0.3 -2.1 0.44 -3.18 0.44 c-3.16 0 -5.16 -2 -5.16 -5.08 c0 -2.98 1.92 -5.14 4.88 -5.14 c2 0 4.06 1.08 4.06 3.28 c0 2.24 -2.1 3.22 -4.04 3.22 c-1.04 0 -2.14 -0.3 -3.08 -0.74 c0.2 2.06 1.6 2.72 3.44 2.72 c0.52 0 1.08 -0.04 1.6 -0.12 c0.5 -0.04 1 -0.14 1.48 -0.3 z M66.851625 6 l1.8 0 l0 14 l-1.8 0 l0 -14 z"></path></g>
			</g>
		</svg>
	